<svg xmlns="http://www.w3.org/2000/svg" viewBox="0 0 210 310" fill="none">
  <polygon fill="#6BC4E8" points="103.5,188.7 103.5,178.4 9.8,107.6 9.8,117.9"/>
  <polygon fill="#6BC4E8" points="9.8,102.9 103.5,173.7 103.5,163.4 9.8,92.6"/>
  <polygon fill="#6BC4E8" points="103.5,203.6 103.5,193.4 9.8,122.6 9.8,132.8"/>
  <polygon fill="#93D500" points="78.7,140 85.5,145.2 200.8,57.9 200.8,47.6"/>
  <polygon fill="#93D500" points="200.8,62.6 88.6,147.5 95.4,152.6 200.8,72.9"/>
  <polygon fill="#6BC4E8" points="103.5,208.3 9.8,137.5 9.8,147.8 103.5,218.6"/>
  <polygon fill="#93D500" points="68.8,132.5 75.6,137.7 200.8,43 200.8,32.7"/>
  <polygon fill="#93D500" points="9.8,28 9.8,87.9 65.7,130.2 200.8,28"/>
  <polygon fill="#93D500" points="200.8,77.6 98.5,155 105.3,160.1 200.8,87.9"/>
  <path fill="#6BC4E8" d="M103.5,223.3L9.8,152.5v9.7c0,76.7,25.8,102.1,93.6,138.4V223.3z"/>
  <path fill="#98989A" d="M115.4,157.1l-8.2,6.2v137.2c2.8-1.5,5.5-3,8.2-4.5V157.1z"/>
  <path fill="#98989A" d="M154.9,127.2v143.1c32.6-26.3,45.9-53.1,45.9-108.1V92.5L154.9,127.2z"/>
  <path fill="#98989A" d="M127.3,148.1l-8.2,6.2V294c2.8-1.6,5.6-3.2,8.2-4.8V148.1z"/>
  <path fill="#98989A" d="M139.3,139.1l-8.2,6.2V287c2.8-1.7,5.6-3.5,8.2-5.2V139.1z"/>
  <path fill="#98989A" d="M151.2,130.1l-8.2,6.2v142.9c2.9-2,5.6-4,8.2-6V130.1z"/>
</svg>
