<svg xmlns="http://www.w3.org/2000/svg" viewBox="0 0 1251.4 302.4" fill="none">
<g>
			<polygon fill="#6BC4E8" points="103.5,188.7 103.5,178.4 9.8,107.6 9.8,117.9 			"/>
			<polygon fill="#6BC4E8" points="9.8,102.9 103.5,173.7 103.5,163.4 9.8,92.6 			"/>
			<polygon fill="#6BC4E8" points="103.5,203.6 103.5,193.4 9.8,122.6 9.8,132.8 			"/>
			<polygon fill="#93D500" points="78.7,140 85.5,145.2 200.8,57.9 200.8,47.6 			"/>
			<polygon fill="#93D500" points="200.8,62.6 88.6,147.5 95.4,152.6 200.8,72.9 			"/>
			<polygon fill="#6BC4E8" points="103.5,208.3 9.8,137.5 9.8,147.8 103.5,218.6 			"/>
			<polygon fill="#93D500" points="68.8,132.5 75.6,137.7 200.8,43 200.8,32.7 			"/>
			<polygon fill="#93D500" points="9.8,28 9.8,87.9 65.7,130.2 200.8,28 			"/>
			<polygon fill="#93D500" points="200.8,77.6 98.5,155 105.3,160.1 200.8,87.9 			"/>
			<path fill="#6BC4E8" d="M103.5,223.3L9.8,152.5v9.7c0,76.7,25.8,102.1,93.6,138.4V223.3z"/>
			<path fill="#98989A" d="M115.4,157.1l-8.2,6.2v137.2c2.8-1.5,5.5-3,8.2-4.5V157.1z"/>
			<path fill="#98989A" d="M154.9,127.2v143.1c32.6-26.3,45.9-53.1,45.9-108.1V92.5L154.9,127.2z"/>
			<path fill="#98989A" d="M127.3,148.1l-8.2,6.2V294c2.8-1.6,5.6-3.2,8.2-4.8V148.1z"/>
			<path fill="#98989A" d="M139.3,139.1l-8.2,6.2V287c2.8-1.7,5.6-3.5,8.2-5.2V139.1z"/>
			<path fill="#98989A" d="M151.2,130.1l-8.2,6.2v142.9c2.9-2,5.6-4,8.2-6V130.1z"/>
			<polygon fill="#6BC4E8" points="103.5,188.7 103.5,178.4 9.8,107.6 9.8,117.9 			"/>
			<polygon fill="#6BC4E8" points="9.8,102.9 103.5,173.7 103.5,163.4 9.8,92.6 			"/>
			<polygon fill="#6BC4E8" points="103.5,203.6 103.5,193.4 9.8,122.6 9.8,132.8 			"/>
			<polygon fill="#93D500" points="78.7,140 85.5,145.2 200.8,57.9 200.8,47.6 			"/>
			<polygon fill="#93D500" points="200.8,62.6 88.6,147.5 95.4,152.6 200.8,72.9 			"/>
			<polygon fill="#6BC4E8" points="103.5,208.3 9.8,137.5 9.8,147.8 103.5,218.6 			"/>
			<polygon fill="#93D500" points="68.8,132.5 75.6,137.7 200.8,43 200.8,32.7 			"/>
			<polygon fill="#93D500" points="9.8,28 9.8,87.9 65.7,130.2 200.8,28 			"/>
			<polygon fill="#93D500" points="200.8,77.6 98.5,155 105.3,160.1 200.8,87.9 			"/>
			<path fill="#6BC4E8" d="M103.5,223.3L9.8,152.5v9.7c0,76.7,25.8,102.1,93.6,138.4V223.3z"/>
			<path fill="#98989A" d="M115.4,157.1l-8.2,6.2v137.2c2.8-1.5,5.5-3,8.2-4.5V157.1z"/>
			<path fill="#98989A" d="M154.9,127.2v143.1c32.6-26.3,45.9-53.1,45.9-108.1V92.5L154.9,127.2z"/>
			<path fill="#98989A" d="M127.3,148.1l-8.2,6.2V294c2.8-1.6,5.6-3.2,8.2-4.8V148.1z"/>
			<path fill="#98989A" d="M139.3,139.1l-8.2,6.2V287c2.8-1.7,5.6-3.5,8.2-5.2V139.1z"/>
			<path fill="#98989A" d="M151.2,130.1l-8.2,6.2v142.9c2.9-2,5.6-4,8.2-6V130.1z"/>
			<path fill="#FFFFFF" d="M23.1,16.7c-1.1,0.1-1.8,0.1-2,0.1c-0.6,0-1.2-0.1-1.6-0.4c-0.5-0.3-1.1-0.9-1.8-1.8
				c-1.4-1.7-2.7-3.5-3.9-5.5c2.5-0.4,3.7-1.5,3.7-3.2c0-0.7-0.2-1.3-0.7-1.8c-0.5-0.5-1.1-0.7-1.9-0.7c-0.4,0-1,0.1-1.6,0.2v10.2
				c0,0.8,0,1.3,0.1,1.6c0.1,0.6,0.4,1,0.9,1.2H10c0.5-0.3,0.8-0.7,0.9-1.2c0.1-0.3,0.1-0.8,0.1-1.6V5c0-0.8,0-1.3-0.1-1.6
				c-0.1-0.6-0.4-1-0.9-1.2h3.2h1h1c1.4,0,2.5,0.3,3.3,0.9c1,0.7,1.5,1.7,1.5,2.8c0,0.9-0.3,1.6-1,2.3c-0.7,0.7-1.5,1.2-2.6,1.4
				c1.6,2.2,3,3.8,4,4.9C21.2,15.5,22.2,16.3,23.1,16.7"/>
			<path fill="#FFFFFF" d="M38.2,16.7h-4.6c0.5-0.3,0.8-0.6,0.8-0.9c0-0.2-0.1-0.6-0.4-1.2l-1.3-3.4h-5.6l-1.3,3.4
				c-0.2,0.4-0.3,0.8-0.3,1.1c0,0.4,0.3,0.7,0.8,1h-4.1c0.5-0.3,0.9-0.7,1.1-1c0.2-0.3,0.6-1,0.9-2L28.3,4c0.2-0.4,0.2-0.8,0.2-1
				c0-0.3-0.2-0.6-0.7-0.9h3.5L36,13.7c0.4,0.9,0.7,1.5,1,1.9C37.3,16.1,37.7,16.4,38.2,16.7 M32.2,9.8L29.9,4l-2.3,5.8H32.2z"/>
			<path fill="#FFFFFF" d="M50.6,12.1c0,0.8-0.2,1.6-0.8,2.3c-0.5,0.7-1.2,1.3-2.1,1.7c-0.9,0.4-2.1,0.6-3.8,0.6h-4.7
				c0.5-0.2,0.8-0.7,0.9-1.2c0.1-0.2,0.1-0.8,0.1-1.6V5c0-0.8,0-1.3-0.1-1.6c-0.1-0.6-0.4-1-0.9-1.2h3.1h0.4h0.8h0.7
				c1.4,0,2.4,0.2,3.1,0.5c1.2,0.6,1.8,1.5,1.8,2.7c0,1-0.4,1.8-1.3,2.3c-0.2,0.2-0.6,0.3-0.9,0.5c0.7,0.2,1.2,0.4,1.7,0.6
				C49.9,9.6,50.6,10.7,50.6,12.1 M46.8,5.7c0-0.7-0.3-1.2-0.8-1.6c-0.5-0.4-1.2-0.6-2.1-0.6c-0.4,0-0.9,0-1.5,0.1V8
				c0.3,0,0.5,0,0.8,0c1.1,0,1.9-0.2,2.5-0.6C46.5,7,46.8,6.4,46.8,5.7 M48.1,12.4c0-1-0.3-1.7-1-2.2c-0.7-0.5-1.7-0.8-3-0.8
				c-0.6,0-1.1,0-1.7,0.1V15c0.7,0.1,1.3,0.2,2,0.2c1.2,0,2.1-0.2,2.7-0.7C47.8,14,48.1,13.3,48.1,12.4"/>
			<path fill="#FFFFFF" d="M63.8,12.1c0,0.8-0.2,1.6-0.8,2.3c-0.5,0.7-1.2,1.3-2.1,1.7c-0.9,0.4-2.1,0.6-3.8,0.6h-4.7
				c0.5-0.2,0.8-0.7,0.9-1.2c0.1-0.2,0.1-0.8,0.1-1.6V5c0-0.8,0-1.3-0.1-1.6c-0.1-0.6-0.4-1-0.9-1.2h3.1h0.4h0.8h0.7
				c1.4,0,2.4,0.2,3.1,0.5c1.2,0.6,1.8,1.5,1.8,2.7c0,1-0.4,1.8-1.3,2.3c-0.2,0.2-0.6,0.3-0.9,0.5c0.7,0.2,1.2,0.4,1.7,0.6
				C63.2,9.6,63.8,10.7,63.8,12.1 M60.1,5.7c0-0.7-0.3-1.2-0.8-1.6c-0.5-0.4-1.2-0.6-2.1-0.6c-0.4,0-0.9,0-1.5,0.1V8
				c0.3,0,0.5,0,0.8,0c1.1,0,1.9-0.2,2.5-0.6C59.7,7,60.1,6.4,60.1,5.7 M61.4,12.4c0-1-0.3-1.7-1-2.2c-0.7-0.5-1.7-0.8-3-0.8
				c-0.6,0-1.1,0-1.7,0.1V15c0.7,0.1,1.3,0.2,2,0.2c1.2,0,2.1-0.2,2.7-0.7C61.1,14,61.4,13.3,61.4,12.4"/>
			<path fill="#FFFFFF" d="M70.1,16.7h-4.2c0.5-0.3,0.8-0.7,0.9-1.2c0.1-0.3,0.1-0.8,0.1-1.6V5c0-0.8,0-1.3-0.1-1.6
				c-0.1-0.6-0.4-1-0.9-1.2h4.2c-0.5,0.2-0.8,0.7-0.9,1.2c-0.1,0.3-0.1,0.8-0.1,1.6v8.9c0,0.8,0,1.3,0.1,1.6
				C69.3,16.1,69.6,16.5,70.1,16.7"/>
			<path fill="#FFFFFF" d="M90,13.9l-1.2,2.8H77.1L85.3,4c-1.1-0.2-2.3-0.2-3.6-0.2c-0.8,0-1.5,0-1.8,0.1c-0.5,0.1-1.1,0.4-1.8,0.8
				l1.1-2.5h9.8l-8.1,12.7c1.8,0.2,3.4,0.2,4.7,0.2C87.1,15.1,88.6,14.7,90,13.9"/>
			<path fill="#FFFFFF" d="M95.6,16.7h-4.2c0.5-0.3,0.8-0.7,0.9-1.2c0.1-0.3,0.1-0.8,0.1-1.6V5c0-0.8,0-1.3-0.1-1.6
				c-0.1-0.6-0.4-1-0.9-1.2h4.2c-0.5,0.2-0.8,0.7-0.9,1.2c-0.1,0.3-0.1,0.8-0.1,1.6v8.9c0,0.8,0,1.3,0.1,1.6
				C94.8,16.1,95.1,16.5,95.6,16.7"/>
			<path fill="#FFFFFF" d="M111.4,9.3c0,1.5-0.4,2.8-1.1,4c-0.8,1.2-1.8,2.1-3.1,2.7c-1.1,0.5-3,0.7-5.9,0.7h-3.6
				c0.4-0.4,0.7-0.7,0.8-1c0.1-0.4,0.2-1,0.2-1.9V5c0-0.8,0-1.3-0.1-1.6c-0.1-0.6-0.4-1-0.9-1.2h2.2h1.5h1.7c2.4,0,4.3,0.6,5.7,1.8
				C110.6,5.3,111.4,7.1,111.4,9.3 M109,9.5c0-1.7-0.5-3.1-1.5-4.2c-1-1.1-2.5-1.7-4.4-1.7c-0.6,0-1.3,0.1-2,0.2v11
				c0.5,0.1,1.1,0.1,1.6,0.1c1.8,0,3.2-0.4,4.2-1.1C108.3,12.9,109,11.5,109,9.5"/>
			<path fill="#FFFFFF" d="M128,2.2c-0.5,0.3-0.8,0.6-0.9,1c-0.2,0.3-0.2,0.9-0.2,1.6v12.7c-1.1-0.3-2.1-1.1-3-2.3L116,5.3v8.8
				c0,0.7,0.1,1.3,0.2,1.6c0.2,0.4,0.5,0.7,0.9,1h-3.9c0.5-0.3,0.8-0.6,0.9-1c0.2-0.3,0.2-0.9,0.2-1.6V4.8c0-0.7-0.1-1.3-0.2-1.6
				c-0.2-0.4-0.5-0.7-0.9-1h3.2c0,0.1,0.2,0.4,0.5,0.8l8.2,10.4V4.8c0-0.7-0.1-1.3-0.2-1.6c-0.2-0.3-0.5-0.7-0.9-1H128z"/>
			<path fill="#FFFFFF" d="M134.1,16.7h-4.2c0.5-0.3,0.8-0.7,0.9-1.2c0.1-0.3,0.1-0.8,0.1-1.6V5c0-0.8,0-1.3-0.1-1.6
				c-0.1-0.6-0.4-1-0.9-1.2h4.2c-0.5,0.2-0.8,0.7-0.9,1.2c-0.1,0.3-0.1,0.8-0.1,1.6v8.9c0,0.8,0,1.3,0.1,1.6
				C133.3,16.1,133.6,16.5,134.1,16.7"/>
			<path fill="#FFFFFF" d="M144.4,3.3c0,0.8-0.4,1.6-1.2,2.6c-0.3,0.3-0.5,0.5-0.6,0.5c0,0-0.1,0-0.2,0l-0.5-0.1
				c0.8-0.9,1.3-1.5,1.3-1.8c0-0.1-0.1-0.2-0.3-0.2c-0.7-0.1-1.1-0.5-1.1-1.2c0-0.3,0.1-0.6,0.4-0.9c0.2-0.2,0.6-0.4,0.9-0.4
				c0.4,0,0.7,0.1,1,0.4C144.3,2.5,144.4,2.9,144.4,3.3"/>
			<path fill="#FFFFFF" d="M150.9,16.7h-4.2c0.5-0.3,0.8-0.7,0.9-1.2c0.1-0.3,0.1-0.8,0.1-1.6V5c0-0.8,0-1.3-0.1-1.6
				c-0.1-0.6-0.4-1-0.9-1.2h4.2c-0.5,0.2-0.8,0.7-0.9,1.2c-0.1,0.3-0.1,0.8-0.1,1.6v8.9c0,0.8,0,1.3,0.1,1.6
				C150.2,16.1,150.5,16.5,150.9,16.7"/>
			<path fill="#FFFFFF" d="M163.3,13.8l-1.2,2.9h-9c0.5-0.2,0.8-0.7,0.9-1.2c0.1-0.3,0.1-0.8,0.1-1.6V5c0-0.8,0-1.3-0.1-1.6
				c-0.1-0.6-0.4-1-0.9-1.2h4.2c-0.5,0.2-0.8,0.7-0.9,1.2c-0.1,0.2-0.1,0.8-0.1,1.6v9.9c1,0.2,2,0.2,3,0.2c0.8,0,1.5-0.1,2.1-0.3
				C161.9,14.7,162.6,14.3,163.3,13.8"/>
			<path fill="#FFFFFF" d="M184,16.7h-4.3c0.6-0.3,0.9-0.8,0.9-1.7c0-0.3,0-0.7-0.1-1.2l-1.2-9.5l-5,12.7c-0.5-0.4-0.9-0.8-1.1-1.1
				c-0.2-0.3-0.5-0.7-0.7-1.3l-4.3-10.2l-1.3,9.8c-0.1,0.5-0.1,0.9-0.1,1.2c0,0.6,0.3,1.1,0.9,1.5h-3.6c0.6-0.6,1-1.6,1.2-2.9
				l1.3-9.3c0.1-0.6,0.1-1,0.1-1.1c0-0.4-0.3-0.9-0.8-1.2h3.9c0,0.2,0.1,0.5,0.2,0.8l4.3,10l3.6-9.2c0.3-0.7,0.4-1.2,0.4-1.6h3.8
				c-0.5,0.2-0.7,0.7-0.7,1.4c0,0.2,0,0.5,0.1,0.8l1.4,9.8c0.1,0.8,0.2,1.3,0.4,1.7C183.4,16.1,183.6,16.4,184,16.7"/>
			<path fill="#FFFFFF" d="M200.7,16.7h-4.6c0.5-0.3,0.8-0.6,0.8-0.9c0-0.2-0.1-0.6-0.4-1.2l-1.3-3.4h-5.6l-1.3,3.4
				c-0.2,0.4-0.3,0.8-0.3,1.1c0,0.4,0.3,0.7,0.8,1h-4.1c0.5-0.3,0.9-0.7,1.1-1c0.2-0.3,0.6-1,0.9-2l3.9-9.7c0.2-0.4,0.2-0.8,0.2-1
				c0-0.3-0.2-0.6-0.7-0.9h3.5l4.7,11.6c0.4,0.9,0.7,1.5,1,1.9C199.8,16.1,200.2,16.4,200.7,16.7 M194.6,9.8L192.4,4l-2.3,5.8H194.6
				z"/>
			
				<rect x="204.4" y="8" transform="matrix(0.7071 -0.7071 0.7071 0.7071 53.1759 149.3377)" fill="#93D500" width="4.9" height="4.9"/>
			<rect x="1" y="8" transform="matrix(0.7071 -0.7071 0.7071 0.7071 -6.4002 5.5119)" fill="#93D500" width="4.9" height="4.9"/>
			<path fill="#FFFFFF" d="M307.5,34.9l-2.9,8.1h-25.8c1.3-0.7,2.2-1.9,2.5-3.5c0.2-0.7,0.2-2.2,0.2-4.5V10.1c0-2.2-0.1-3.7-0.2-4.5
				c-0.4-1.6-1.2-2.8-2.5-3.5h23.6c0.9,0,1.7-0.1,2.3-0.4v7.2c-1.1-1.1-2.2-1.7-3.5-2.1c-0.9-0.3-2.3-0.4-4.1-0.4
				c-2.6,0-7.7,0.1-9.4,0.4v11.6H299c0.8,0,1.5-0.1,2.1-0.4v6.6c-0.9-1.1-2.5-1.6-4.9-1.6h-8.5v14.7c2.6,0.4,5.2,0.7,7.6,0.7
				C300.4,38.5,304.4,37.3,307.5,34.9"/>
			<path fill="#FFFFFF" d="M391.2,34.9l-2.9,8.1h-25.8c1.3-0.7,2.2-1.9,2.5-3.5c0.2-0.7,0.2-2.2,0.2-4.5V10.1c0-2.2-0.1-3.7-0.2-4.5
				c-0.4-1.6-1.2-2.8-2.5-3.5h23.6c0.9,0,1.7-0.1,2.3-0.4v7.2C387.4,8,386.2,7.3,385,7c-0.9-0.3-2.3-0.4-4.1-0.4
				c-2.6,0-7.7,0.1-9.4,0.4v11.6h11.2c0.8,0,1.5-0.1,2.1-0.4v6.6c-0.9-1.1-2.5-1.6-4.9-1.6h-8.5v14.7c2.6,0.4,5.2,0.7,7.6,0.7
				C384.1,38.5,388.1,37.3,391.2,34.9"/>
			<path fill="#FFFFFF" d="M428.4,13c0,3.2-1.3,5.9-4,8.2c-2.7,2.3-5.9,3.4-9.7,3.4c-1.6,0-3.1-0.3-4.5-0.8c3.5-0.4,6.1-1.4,8-3
				c2.2-1.8,3.2-4.1,3.2-6.7c0-2.4-0.8-4.3-2.4-5.6c-1.6-1.4-3.8-2.1-6.6-2.1c-1.5,0-2.9,0.2-4.3,0.5v28.7c0,2,0.2,3.6,0.7,4.6
				c0.4,1,1.3,1.9,2.6,2.7h-12.2c1.3-0.7,2.2-1.9,2.5-3.5c0.2-0.7,0.2-2.2,0.2-4.5v-25c0-2.3-0.1-3.8-0.2-4.5
				c-0.4-1.6-1.2-2.8-2.5-3.5h5.9h2.3h4.6h1.9c3.3,0,6.1,0.5,8.2,1.5c1.9,0.9,3.4,2.2,4.6,3.9C427.9,9.3,428.4,11.1,428.4,13"/>
			<path fill="#FFFFFF" d="M474.3,22.2c0,5.7-2.1,10.5-6.3,14.5c-4.2,3.9-9.3,5.9-15.3,5.9c-5.9,0-11-1.9-15.1-5.8
				c-4.1-3.9-6.2-8.6-6.2-14.2c0-5.8,2.1-10.6,6.3-14.5c4.2-3.9,9.5-5.9,15.7-5.9c6,0,10.9,1.9,14.9,5.7c1.8,1.8,3.3,3.9,4.3,6.5
				C473.7,17,474.3,19.6,474.3,22.2 M467.6,23.2c0-4.5-1.3-8.4-4-11.6c-2.8-3.4-6.5-5.1-11-5.1c-4.3,0-7.8,1.4-10.5,4.2
				c-2.7,2.8-4.1,6.5-4.1,11c0,4.8,1.6,8.9,4.7,12.4c2.6,2.9,6,4.4,10.2,4.4c4.3,0,7.9-1.4,10.6-4.2
				C466.3,31.4,467.6,27.7,467.6,23.2"/>
			<path fill="#FFFFFF" d="M552.5,43h-12.9c1.5-0.9,2.2-1.7,2.2-2.5c0-0.5-0.3-1.6-1.1-3.5l-3.6-9.5h-15.7l-3.5,9.5
				c-0.5,1.3-0.7,2.3-0.7,3.2c0,1.1,0.7,2,2.2,2.8h-11.4c1.4-0.9,2.4-1.8,3.1-2.8c0.7-1,1.5-2.8,2.6-5.5l10.9-27.3
				c0.5-1.2,0.7-2.1,0.7-2.8c0-1-0.6-1.8-1.9-2.4h9.9l13,32.5c1,2.5,1.9,4.3,2.7,5.4C550,41.2,551.1,42.2,552.5,43 M535.6,23.6
				l-6.3-16.2l-6.3,16.2H535.6z"/>
			<path fill="#FFFFFF" d="M351.3,39.2V9.5c0-2.1,0.2-3.6,0.6-4.6c0.4-1,1.3-1.9,2.6-2.7h-11.1c1.3,0.9,2.2,1.8,2.6,2.8
				c0.5,1,0.7,2.5,0.7,4.5v25.9l-23-30.9c-0.9-1.3-1.4-2.1-1.5-2.3h-9c1.3,0.8,2.1,1.7,2.6,2.7c0.5,1,0.7,2.5,0.7,4.6v26.3
				c0,2.1-0.2,3.6-0.7,4.5c-0.4,1-1.3,1.9-2.6,2.7h11c-1.3-0.8-2.1-1.7-2.6-2.7c-0.5-1-0.7-2.5-0.7-4.5V10.9l20.1,27.6
				c2.7,3.4,4.5,4.5,6.9,4.5h4.9C352,42.1,351.3,40.5,351.3,39.2"/>
			<path fill="#FFFFFF" d="M257.2,25.1v10.6c0,1.9,0.2,3.2,0.5,4.1c0.4,1,1.3,2.1,2.6,3.2h-12c1.3-0.9,2.1-2.1,2.4-3.5
				c0.2-0.7,0.2-2.1,0.2-4.4v-9.9L238.3,5.9c-1.1-1.7-2.6-2.9-4.1-3.8h5.5c2.3,0,3.5,1.3,4.3,2.7L254,20.2"/>
			<path fill="#FFFFFF" d="M256,27l16.4-24.8h-12.2c1.5,0.8,2.2,1.9,2.2,3.1c0,0.8-0.4,1.8-1.2,3l-8.8,13.1"/>
			<path fill="#FFFFFF" d="M497.6,25.3v10.6c0,1.9,0.2,3.2,0.5,4.1c0.4,1,1.3,2.1,2.6,3.2h-12c1.3-0.9,2.1-2.1,2.4-3.5
				c0.2-0.7,0.2-2.1,0.2-4.4v-9.9L478.7,6.1c-1.1-1.7-2.6-2.9-4.1-3.8h5.5c2.3,0,3.5,1.3,4.3,2.7l10.1,15.3"/>
			<path fill="#FFFFFF" d="M496.4,27.1l16.4-24.8h-12.2c1.5,0.8,2.2,1.9,2.2,3.1c0,0.8-0.4,1.8-1.2,3l-8.8,13.1"/>
			<path fill="#FFFFFF" d="M232.1,126.2l3.5-7.4c5,4.5,13.5,7.7,22,7.7c11.5,0,16.5-4.5,16.5-10.3c0-16.3-40.5-6-40.5-30.8
				c0-10.3,8-19.1,25.6-19.1c7.8,0,15.9,2.1,21.5,5.9l-3.2,7.6c-5.8-3.7-12.4-5.4-18.3-5.4c-11.4,0-16.2,4.8-16.2,10.6
				c0,16.3,40.5,6.1,40.5,30.6c0,10.2-8.2,19-25.9,19C247.5,134.6,237.5,131.1,232.1,126.2"/>
			<path fill="#FFFFFF" d="M289.1,108.5c0-15.1,11.2-25.8,26.7-25.8c9.1,0,16.6,3.7,20.6,10.8l-7,4.5c-3.2-5-8.2-7.3-13.7-7.3
				c-9.9,0-17.4,7-17.4,17.8c0,11,7.4,17.8,17.4,17.8c5.5,0,10.5-2.3,13.7-7.3l7,4.4c-4,7.1-11.5,10.9-20.6,10.9
				C300.3,134.4,289.1,123.6,289.1,108.5"/>
			<path fill="#FFFFFF" d="M393.3,104.7v29.1h-9.2v-28.1c0-9.9-5-14.8-13.6-14.8c-9.7,0-16,5.8-16,16.8v26.1h-9.2V63h9.2v27.4
				c3.8-4.9,10.1-7.6,17.8-7.6C384.6,82.7,393.3,89.8,393.3,104.7"/>
			<path fill="#FFFFFF" d="M403.5,108.5c0-15.1,11.2-25.8,26.3-25.8s26.2,10.7,26.2,25.8c0,15.1-11.1,25.9-26.2,25.9
				S403.5,123.6,403.5,108.5 M446.8,108.5c0-10.8-7.3-17.8-17-17.8c-9.7,0-17.1,7-17.1,17.8c0,10.8,7.4,17.8,17.1,17.8
				C439.6,126.4,446.8,119.3,446.8,108.5"/>
			<path fill="#FFFFFF" d="M461.7,108.5c0-15.1,11.2-25.8,26.3-25.8s26.2,10.7,26.2,25.8c0,15.1-11.1,25.9-26.2,25.9
				S461.7,123.6,461.7,108.5 M505,108.5c0-10.8-7.3-17.8-17-17.8c-9.7,0-17.1,7-17.1,17.8c0,10.8,7.4,17.8,17.1,17.8
				C497.8,126.4,505,119.3,505,108.5"/>
			<rect x="524.6" y="63" fill="#FFFFFF" width="9.2" height="70.8"/>
			<path fill="#FFFFFF" d="M567.5,108.5c0-15.1,11.2-25.8,26.3-25.8s26.2,10.7,26.2,25.8c0,15.1-11.1,25.9-26.2,25.9
				S567.5,123.6,567.5,108.5 M610.8,108.5c0-10.8-7.3-17.8-17-17.8c-9.7,0-17.1,7-17.1,17.8c0,10.8,7.4,17.8,17.1,17.8
				C603.6,126.4,610.8,119.3,610.8,108.5"/>
			<path fill="#FFFFFF" d="M640.7,78.8v4.4h14.7v7.5h-14.5v43h-9.2v-43h-8.6v-7.5h8.6v-4.5c0-9.8,5.9-16.3,16.7-16.3
				c3.9,0,7.7,1,10.3,3l-2.8,7c-1.9-1.4-4.4-2.4-7.1-2.4C643.5,69.9,640.7,73,640.7,78.8"/>
			<polygon fill="#FFFFFF" points="734.8,125.5 734.8,133.8 686.3,133.8 686.3,67 733.5,67 733.5,75.3 695.9,75.3 695.9,95.8 
				729.4,95.8 729.4,103.9 695.9,103.9 695.9,125.5 			"/>
			<path fill="#FFFFFF" d="M794.6,104.7v29.1h-9.2v-28.1c0-9.9-5-14.8-13.7-14.8c-9.7,0-16,5.8-16,16.8v26.1h-9.2V83.2h8.8v7.6
				c3.7-5.2,10.2-8.1,18.2-8.1C785.9,82.7,794.6,89.8,794.6,104.7"/>
			<path fill="#FFFFFF" d="M857.9,83.2v43.7c0,17.8-9.1,26-26.2,26c-9.3,0-18.6-2.6-24.1-7.5l4.4-7.1c4.7,4,12,6.6,19.5,6.6
				c11.9,0,17.4-5.5,17.4-17v-4c-4.4,5.3-11,7.8-18.2,7.8c-14.6,0-25.7-9.9-25.7-24.5c0-14.6,11.1-24.4,25.7-24.4
				c7.5,0,14.4,2.8,18.7,8.3v-7.8H857.9z M848.9,107.2c0-9.8-7.3-16.4-17.4-16.4c-10.2,0-17.5,6.6-17.5,16.4
				c0,9.7,7.3,16.5,17.5,16.5C841.6,123.7,848.9,116.9,848.9,107.2"/>
			<path fill="#FFFFFF" d="M871.3,67.6c0-3.3,2.7-6,6.2-6c3.5,0,6.2,2.6,6.2,5.8c0,3.4-2.6,6.1-6.2,6.1
				C874,73.5,871.3,70.9,871.3,67.6 M873,83.2h9.2v50.6H873V83.2z"/>
			<path fill="#FFFFFF" d="M945.2,104.7v29.1H936v-28.1c0-9.9-5-14.8-13.6-14.8c-9.7,0-16,5.8-16,16.8v26.1h-9.2V83.2h8.8v7.6
				c3.7-5.2,10.2-8.1,18.2-8.1C936.5,82.7,945.2,89.8,945.2,104.7"/>
			<path fill="#FFFFFF" d="M1005.6,111.6h-41c1.1,8.9,8.3,14.8,18.3,14.8c5.9,0,10.9-2,14.6-6.1l5.1,5.9c-4.6,5.3-11.5,8.2-19.9,8.2
				c-16.3,0-27.2-10.8-27.2-25.9c0-15,10.8-25.8,25.4-25.8c14.6,0,25,10.5,25,26.1C1005.8,109.6,1005.7,110.7,1005.6,111.6
				 M964.6,105H997c-1-8.5-7.3-14.5-16.2-14.5C972,90.5,965.5,96.4,964.6,105"/>
			<path fill="#FFFFFF" d="M1061.7,111.6h-41c1.1,8.9,8.3,14.8,18.3,14.8c5.9,0,10.9-2,14.6-6.1l5.1,5.9c-4.6,5.3-11.5,8.2-19.9,8.2
				c-16.3,0-27.2-10.8-27.2-25.9c0-15,10.8-25.8,25.4-25.8c14.6,0,25,10.5,25,26.1C1061.9,109.6,1061.8,110.7,1061.7,111.6
				 M1020.6,105h32.4c-1-8.5-7.3-14.5-16.2-14.5C1028.1,90.5,1021.6,96.4,1020.6,105"/>
			<path fill="#FFFFFF" d="M1099.4,82.7v8.9c-0.8-0.1-1.4-0.1-2.1-0.1c-9.8,0-15.9,6-15.9,17.1v25.2h-9.2V83.2h8.8v8.5
				C1084.2,85.8,1090.5,82.7,1099.4,82.7"/>
			<path fill="#FFFFFF" d="M1106.6,67.6c0-3.3,2.7-6,6.2-6c3.5,0,6.2,2.6,6.2,5.8c0,3.4-2.6,6.1-6.2,6.1
				C1109.3,73.5,1106.6,70.9,1106.6,67.6 M1108.3,83.2h9.2v50.6h-9.2V83.2z"/>
			<path fill="#FFFFFF" d="M1180.5,104.7v29.1h-9.2v-28.1c0-9.9-5-14.8-13.6-14.8c-9.7,0-16,5.8-16,16.8v26.1h-9.2V83.2h8.8v7.6
				c3.7-5.2,10.2-8.1,18.2-8.1C1171.8,82.7,1180.5,89.8,1180.5,104.7"/>
			<path fill="#FFFFFF" d="M1243.8,83.2v43.7c0,17.8-9.1,26-26.2,26c-9.3,0-18.6-2.6-24.1-7.5l4.4-7.1c4.7,4,12,6.6,19.5,6.6
				c11.9,0,17.4-5.5,17.4-17v-4c-4.4,5.3-11,7.8-18.2,7.8c-14.6,0-25.7-9.9-25.7-24.5c0-14.6,11.1-24.4,25.7-24.4
				c7.5,0,14.4,2.8,18.7,8.3v-7.8H1243.8z M1234.8,107.2c0-9.8-7.3-16.4-17.4-16.4c-10.2,0-17.5,6.6-17.5,16.4
				c0,9.7,7.3,16.5,17.5,16.5C1227.6,123.7,1234.8,116.9,1234.8,107.2"/>
			<path fill="#FFFFFF" d="M283,229.6l-8.9-8.9c-5.8,5.6-13.5,8.6-22.3,8.6c-13.5,0-23.4-7.2-23.4-17.4c0-8.2,4.7-13.9,16.2-20.5
				c-6-6-8-10.3-8-15.3c0-9,7.1-15,18-15c10.1,0,16.6,5.2,16.6,13.9c0,6.8-4,11.6-14.2,17.5l16.5,16.4c1.8-3.4,3.2-7.4,4.1-12.1
				l7.3,2.4c-1.1,5.9-3.1,11.1-5.8,15.3l9,9L283,229.6z M268.6,215.4l-19-18.9c-9.4,5.3-12.3,9.2-12.3,14.5c0,6.4,6,10.7,15,10.7
				C258.7,221.7,264.3,219.6,268.6,215.4 M245.1,175.9c0,3.4,1.3,5.9,6.8,11.5c8.8-5,11.6-8,11.6-12.2c0-4.4-3.1-7.3-8.9-7.3
				C248.6,167.8,245.1,171.2,245.1,175.9"/>
			<polygon fill="#FFFFFF" points="333.7,170 310.8,170 310.8,161.7 366.1,161.7 366.1,170 343.2,170 343.2,228.5 333.7,228.5 			
				"/>
			<path fill="#FFFFFF" d="M413.1,206.3h-41c1.1,8.9,8.3,14.8,18.3,14.8c5.9,0,10.9-2,14.6-6.1l5.1,5.9c-4.6,5.3-11.5,8.2-19.9,8.2
				c-16.3,0-27.2-10.8-27.2-25.9c0-15,10.8-25.8,25.4-25.8c14.6,0,25,10.5,25,26.1C413.3,204.3,413.2,205.4,413.1,206.3 M372,199.7
				h32.4c-1-8.5-7.3-14.5-16.2-14.5C379.5,185.2,373,191.1,372,199.7"/>
			<path fill="#FFFFFF" d="M418.9,203.2c0-15.1,11.2-25.8,26.7-25.8c9.1,0,16.6,3.7,20.6,10.8l-7,4.5c-3.2-5-8.2-7.3-13.7-7.3
				c-9.9,0-17.4,7-17.4,17.8c0,11,7.4,17.8,17.4,17.8c5.5,0,10.5-2.3,13.7-7.3l7,4.4c-4,7.1-11.5,10.9-20.6,10.9
				C430.1,229.1,418.9,218.3,418.9,203.2"/>
			<path fill="#FFFFFF" d="M523,199.4v29.1h-9.2v-28.1c0-9.9-5-14.8-13.6-14.8c-9.7,0-16,5.8-16,16.8v26.1H475v-70.8h9.2v27.4
				c3.8-4.9,10.1-7.6,17.8-7.6C514.4,177.5,523,184.5,523,199.4"/>
			<path fill="#FFFFFF" d="M585.7,199.4v29.1h-9.2v-28.1c0-9.9-5-14.8-13.6-14.8c-9.7,0-16,5.8-16,16.8v26.1h-9.2v-50.6h8.8v7.6
				c3.7-5.2,10.2-8.1,18.2-8.1C577,177.5,585.7,184.5,585.7,199.4"/>
			<path fill="#FFFFFF" d="M595.9,203.2c0-15.1,11.2-25.8,26.3-25.8s26.2,10.7,26.2,25.8c0,15.1-11.1,25.9-26.2,25.9
				S595.9,218.3,595.9,203.2 M639.2,203.2c0-10.8-7.3-17.8-17-17.8c-9.7,0-17.1,7-17.1,17.8c0,10.8,7.4,17.8,17.1,17.8
				C632,221.1,639.2,214,639.2,203.2"/>
			<rect x="658.8" y="157.7" fill="#FFFFFF" width="9.2" height="70.8"/>
			<path fill="#FFFFFF" d="M678.4,203.2c0-15.1,11.2-25.8,26.3-25.8s26.2,10.7,26.2,25.8c0,15.1-11.1,25.9-26.2,25.9
				S678.4,218.3,678.4,203.2 M721.7,203.2c0-10.8-7.3-17.8-17-17.8c-9.7,0-17.1,7-17.1,17.8c0,10.8,7.4,17.8,17.1,17.8
				C714.4,221.1,721.7,214,721.7,203.2"/>
			<path fill="#FFFFFF" d="M789.7,177.9v43.7c0,17.8-9.1,26-26.2,26c-9.3,0-18.6-2.6-24.1-7.5l4.4-7.1c4.7,4,12,6.6,19.5,6.6
				c11.9,0,17.4-5.5,17.4-17v-4c-4.4,5.3-11,7.8-18.2,7.8c-14.6,0-25.7-9.9-25.7-24.5c0-14.6,11.1-24.4,25.7-24.4
				c7.5,0,14.4,2.8,18.7,8.3v-7.8H789.7z M780.7,201.9c0-9.8-7.3-16.4-17.4-16.4c-10.2,0-17.5,6.6-17.5,16.4
				c0,9.7,7.3,16.5,17.5,16.5C773.4,218.4,780.7,211.6,780.7,201.9"/>
			<path fill="#FFFFFF" d="M849.5,177.9L825,233.6c-4.5,10.7-10.3,14-18,14c-4.9,0-9.8-1.6-13-4.7l3.9-6.9c2.5,2.4,5.6,3.7,9.1,3.7
				c4.4,0,7.2-2,9.6-7.8l1.6-3.5l-22.3-50.5h9.5l17.7,40.5l17.5-40.5H849.5z"/>
		</g>
</svg>